<svg xmlns="http://www.w3.org/2000/svg" width="500" height="210" viewBox="0 0 500 210" font-family="-apple-system,BlinkMacSystemFont,'Segoe UI',Helvetica,Arial,sans-serif">
<rect width="500" height="210" rx="10" fill="#0d1117" stroke="#30363d"/>
<text x="22" y="34" font-size="18" font-weight="700" fill="#e6edf3">robot-chalao</text>
<rect x="408" y="16" width="70" height="30" rx="6" fill="#b25a00"/>
<text x="443" y="37" font-size="17" font-weight="700" fill="#fff" text-anchor="middle">C</text>
<text x="404" y="60" font-size="10" fill="#8b949e" text-anchor="end">health</text>
<text x="22" y="80" font-size="17" font-weight="700" fill="#e6edf3">5,375</text>
<text x="22" y="96" font-size="10.5" fill="#8b949e">lines</text>
<text x="92" y="80" font-size="17" font-weight="700" fill="#e6edf3">49</text>
<text x="92" y="96" font-size="10.5" fill="#8b949e">files</text>
<text x="162" y="80" font-size="17" font-weight="700" fill="#e6edf3">4</text>
<text x="162" y="96" font-size="10.5" fill="#8b949e">commits</text>
<text x="232" y="80" font-size="17" font-weight="700" fill="#e6edf3">1</text>
<text x="232" y="96" font-size="10.5" fill="#8b949e">authors</text>
<text x="302" y="80" font-size="17" font-weight="700" fill="#e6edf3">1</text>
<text x="302" y="96" font-size="10.5" fill="#8b949e">bus factor</text>
<text x="22" y="112" font-size="10.5" fill="#8b949e">languages</text>
<rect x="22.0" y="116" width="389.3" height="9" fill="#3572A5"><title>Python 85%</title></rect>
<rect x="411.3" y="116" width="35.5" height="9" fill="#7f8c8d"><title>Docs 8%</title></rect>
<rect x="446.8" y="116" width="15.2" height="9" fill="#a0a0a0"><title>JSON 3%</title></rect>
<rect x="462.0" y="116" width="11.1" height="9" fill="#5b6673"><title>Other 2%</title></rect>
<rect x="473.1" y="116" width="3.4" height="9" fill="#cb171e"><title>YAML 1%</title></rect>
<rect x="476.5" y="116" width="1.5" height="9" fill="#6e7681"><title>Config 0%</title></rect>
<circle cx="26" cy="140" r="4" fill="#3572A5"/>
<text x="35" y="144" font-size="10.5" fill="#8b949e">Python 85%</text>
<circle cx="120" cy="140" r="4" fill="#7f8c8d"/>
<text x="129" y="144" font-size="10.5" fill="#8b949e">Docs 8%</text>
<circle cx="200" cy="140" r="4" fill="#a0a0a0"/>
<text x="209" y="144" font-size="10.5" fill="#8b949e">JSON 3%</text>
<circle cx="280" cy="140" r="4" fill="#5b6673"/>
<text x="289" y="144" font-size="10.5" fill="#8b949e">Other 2%</text>
<text x="22" y="170" font-size="10.5" fill="#8b949e">top hotspot</text>
<text x="22" y="186" font-size="12.5" fill="#e6edf3" font-weight="600">src/robot_chalao/backends/control.py</text>
<text x="22" y="200" font-size="10" fill="#b02a37">2 commits x complexity 20 - refactor first</text>
<text x="486" y="200" font-size="9.5" fill="#484f58" text-anchor="end">RepoLens</text>
</svg>